# xmcd
#
# Track frame offsets: 
#        150
#        32265
#        68335
#        99225
#        129364
#        162396
#        192357
#
# Disc length: 2973 seconds
#
# Revision: 3
# Processed by: cddbd v1.5.2PL0 Copyright (c) Steve Scherf et al.
# Submitted via: ExactAudioCopyFreeDBPlugin 1.0
#
DISCID=4a0b9b07
DTITLE=Joe Henderson - Mode for Joe
DYEAR=1966
DGENRE=Jazz
TTITLE0=A Shade of Jade
TTITLE1=Mode for Joe
TTITLE2=Black
TTITLE3=Caribbean Fire Dance
TTITLE4=Granted
TTITLE5=Free Wheelin'
TTITLE6=Black (Alternate Take)
EXTD=YEAR: 1966 ID3G: 8
EXTT0=
EXTT1=
EXTT2=
EXTT3=
EXTT4=
EXTT5=
EXTT6=
PLAYORDER=
